#N canvas 0 22 1440 750 10;
#X obj 324 312 vcf~;
#X obj -4 -50 adc~;
#X obj 1565 605 dac~;
#X floatatom 415 276 5 0 0 0 - - -, f 5;
#X obj 415 143 vsl 15 128 0 20 0 0 empty empty empty 0 -9 0 10 -262144
-1 -1 3366 1;
#X obj 390 -46 +~ 1;
#X obj 391 -25 *~ 0.5;
#X obj 390 -67 osc~ 2;
#X obj 492 10 hsl 128 15 700 6000 0 0 empty empty empty -2 -8 0 10
-262144 -1 -1 0 1;
#X obj 446 83 hsl 128 15 0 700 0 0 empty empty empty -2 -8 0 10 -262144
-1 -1 0 1;
#X floatatom 443 102 6 0 0 0 - - -, f 6;
#X floatatom 444 44 6 0 0 0 - - -, f 6;
#X obj 444 25 -;
#X obj 444 3 bang;
#X obj 344 109 +~ 200;
#X obj 343 27 *~ 1500;
#X text 441 -50 <-- LFO (Low-Frequency Oscillator;
#X text 625 8 <-- Maximum of the freq. range;
#X text 579 80 <-- Minimum of the freq. range;
#X text 452 233 <-- "Q";
#X text 363 313 <-- Voltage-Controlled band-pass filter;
#X obj 395 -96 hsl 128 15 0.5 4 0 0 empty empty empty -2 -8 0 10 -262144
-1 -1 0 1;
#X text 468 427 Pierre Massat \, GuitarExtended \, 2012.s;
#X obj 487 134 loadbang;
#X msg 485 159 5.3;
#X obj 682 -313 r audio_on_off;
#X msg 674 -263 \; pd dsp \$1 \;;
#X obj 790 -261 netreceive 3000;
#X obj 723 -137 s audio_on_off;
#X obj 736 271 r wah;
#X floatatom 713 -202 5 0 0 0 - - -, f 5;
#X floatatom 713 -202 5 0 0 0 - - -, f 5;
#X obj 676 344 *~;
#X obj 745 364 == 0;
#X obj 711 405 *~;
#X obj 976 595 vd~ vibrato;
#X obj 975 549 *~ 1;
#X obj 1087 418 vsl 15 128 1 5 0 0 empty empty empty 0 -9 0 10 -262144
-1 -1 0 1;
#X obj 976 571 +~ 2;
#X obj 949 349 delwrite~ vibrato 50;
#X obj 976 508 osc~ 2;
#X obj 976 375 vsl 15 128 1 5 0 0 empty empty empty 0 -9 0 10 -262144
-1 -1 0 1;
#X floatatom 1130 602 5 0 0 0 - - -, f 5;
#X obj 1130 580 +;
#X obj 1087 554 * 2;
#X floatatom 930 524 5 0 0 0 - - -, f 5;
#X text 1167 603 <-- Maximum length of the delay line (= added latency!)
;
#X text 1115 487 <-- Depth (change the length of the delay line);
#X text 1002 389 <-- Speed (frequency of the LFO);
#X text 835 681 Pierre Massat \, GuitarExtended \, 2012;
#X obj 128 15 *~ 5;
#X obj 434 600 *~;
#X obj 503 620 == 0;
#X obj 469 661 *~;
#X obj 882 -144 s wah;
#X floatatom 599 657 5 0 0 0 - - -, f 5;
#X floatatom 529 700 5 0 0 0 - - -, f 5;
#X obj 510 545 r vib;
#X obj 38 505 clip~ -0.5 0.5;
#X text 95 451 <-- Amplify the sound from the guitar;
#X obj 21 439 *~ 5;
#X obj 96 357 *~;
#X obj 165 377 == 0;
#X obj 131 418 *~;
#X obj 932 -136 s vib, f 6;
#X obj 830 -135 s fuzz;
#X obj 156 284 r fuzz;
#X obj 288 265 *~ 5;
#N canvas 0 22 612 483 equal_power_crossfade 0;
#X obj 33 48 inlet~;
#X obj 244 58 inlet;
#X obj 33 332 outlet~;
#X obj 319 54 loadbang;
#X msg 319 74 0.5;
#X obj 49 194 expr cos($f1 * 3.14159 / 2);
#X obj 244 194 expr sin($f1 * 3.14159 / 2);
#X obj 244 134 clip 0 1;
#N canvas 0 22 450 300 pan_core 0;
#X obj 21 106 inlet~;
#X obj 226 126 inlet;
#X obj 80 453 *~;
#X obj 144 497 outlet~;
#X obj 210 452 *~;
#X obj 226 428 line~;
#X obj 96 428 line~;
#X obj 96 127 inlet;
#X obj 179 104 inlet~;
#X text 244 544 comment;
#X obj 96 389 pack f 5;
#X obj 226 389 pack f 5;
#X text 223 540 Hans-Christoph Steiner \, 2004;
#X text 223 526 Adapted from [pan_core~];
#X connect 0 0 2 0;
#X connect 1 0 11 0;
#X connect 2 0 3 0;
#X connect 4 0 3 0;
#X connect 5 0 4 1;
#X connect 6 0 2 1;
#X connect 7 0 10 0;
#X connect 8 0 4 0;
#X connect 10 0 6 0;
#X connect 11 0 5 0;
#X restore 39 266 pd pan_core;
#X text 256 437 Adapted from [equal_power_pan~] \, Hans-Christoph Steiner
\, 2004;
#X text 411 449 comment;
#X obj 128 46 inlet~;
#X connect 0 0 8 0;
#X connect 1 0 7 0;
#X connect 3 0 4 0;
#X connect 4 0 7 0;
#X connect 5 0 8 1;
#X connect 6 0 8 3;
#X connect 7 0 5 0;
#X connect 7 0 6 0;
#X connect 8 0 2 0;
#X connect 11 0 8 2;
#X restore 917 263 pd equal_power_crossfade;
#X obj 927 81 hsl 128 25 0 1 0 0 empty crossfade Dry_---_Wet_(crossfade)
-2 -8 0 10 -4034 -1 -1 6350 1;
#X obj 1212 6 Guitar_specdelay~;
#N canvas 0 22 450 300 init 0;
#X obj 214 41 loadbang;
#X msg 217 77 \; del-sin 1 \; fb-sin 1 \; gain-flat 1 \; lp-freq 220
\; slope -0.04 \; crossfade 0.5 \;;
#X connect 0 0 1 0;
#X restore 1090 -27 pd init;
#X obj 839 82 *~ 5;
#X obj 1527 451 *~;
#X obj 1596 471 == 0;
#X obj 1562 512 *~;
#X floatatom 1692 508 5 0 0 0 - - -, f 5;
#X floatatom 1622 551 5 0 0 0 - - -, f 5;
#X obj 1603 396 r del;
#X obj 797 -214 route 0 1 2 3 4;
#X obj 986 -145 s del, f 6;
#X connect 0 0 32 0;
#X connect 1 0 50 0;
#X connect 4 0 3 0;
#X connect 4 0 0 2;
#X connect 5 0 6 0;
#X connect 6 0 15 0;
#X connect 7 0 5 0;
#X connect 8 0 12 0;
#X connect 9 0 10 0;
#X connect 9 0 12 1;
#X connect 9 0 13 0;
#X connect 9 0 14 1;
#X connect 12 0 11 0;
#X connect 12 0 15 1;
#X connect 13 0 12 0;
#X connect 14 0 0 1;
#X connect 15 0 14 0;
#X connect 21 0 7 0;
#X connect 23 0 24 0;
#X connect 24 0 4 0;
#X connect 25 0 26 0;
#X connect 27 0 30 0;
#X connect 27 0 79 0;
#X connect 29 0 32 1;
#X connect 29 0 33 0;
#X connect 32 0 53 0;
#X connect 32 0 39 0;
#X connect 33 0 34 1;
#X connect 34 0 53 0;
#X connect 34 0 39 0;
#X connect 35 0 51 0;
#X connect 36 0 38 0;
#X connect 37 0 36 1;
#X connect 37 0 43 1;
#X connect 37 0 44 0;
#X connect 38 0 35 0;
#X connect 40 0 36 0;
#X connect 41 0 40 0;
#X connect 41 0 45 0;
#X connect 43 0 42 0;
#X connect 44 0 38 1;
#X connect 44 0 43 0;
#X connect 50 0 60 0;
#X connect 50 0 63 0;
#X connect 51 0 68 0;
#X connect 51 0 70 0;
#X connect 51 0 75 0;
#X connect 52 0 53 1;
#X connect 52 0 56 0;
#X connect 53 0 68 0;
#X connect 53 0 70 0;
#X connect 53 0 75 0;
#X connect 57 0 51 1;
#X connect 57 0 52 0;
#X connect 57 0 55 0;
#X connect 58 0 61 0;
#X connect 60 0 58 0;
#X connect 61 0 34 0;
#X connect 61 0 67 0;
#X connect 62 0 63 1;
#X connect 63 0 34 0;
#X connect 63 0 67 0;
#X connect 66 0 61 1;
#X connect 66 0 62 0;
#X connect 67 0 0 0;
#X connect 68 0 73 0;
#X connect 69 0 68 2;
#X connect 70 0 72 0;
#X connect 72 0 68 1;
#X connect 73 0 2 0;
#X connect 73 0 2 1;
#X connect 74 0 75 1;
#X connect 74 0 77 0;
#X connect 75 0 2 0;
#X connect 75 0 2 1;
#X connect 78 0 73 1;
#X connect 78 0 74 0;
#X connect 78 0 76 0;
#X connect 79 0 28 0;
#X connect 79 1 65 0;
#X connect 79 2 54 0;
#X connect 79 3 64 0;
#X connect 79 4 80 0;
